<?xml version="1.0" encoding="UTF-8" standalone="no"?>
<!-- Created with Inkscape (http://www.inkscape.org/) -->

<svg
   xmlns:dc="http://purl.org/dc/elements/1.1/"
   xmlns:cc="http://creativecommons.org/ns#"
   xmlns:rdf="http://www.w3.org/1999/02/22-rdf-syntax-ns#"
   xmlns:svg="http://www.w3.org/2000/svg"
   xmlns="http://www.w3.org/2000/svg"
   xmlns:sodipodi="http://sodipodi.sourceforge.net/DTD/sodipodi-0.dtd"
   xmlns:inkscape="http://www.inkscape.org/namespaces/inkscape"
   width="107.97064mm"
   height="26.227777mm"
   viewBox="0 0 107.97064 26.227777"
   version="1.1"
   id="svg8"
   inkscape:version="0.92.2 (5c3e80d, 2017-08-06)"
   sodipodi:docname="kspace-logo.svg">
  <defs
     id="defs2" />
  <sodipodi:namedview
     id="base"
     pagecolor="#ffffff"
     bordercolor="#666666"
     borderopacity="1.0"
     inkscape:pageopacity="0.0"
     inkscape:pageshadow="2"
     inkscape:zoom="1.4"
     inkscape:cx="317.30641"
     inkscape:cy="-69.935733"
     inkscape:document-units="mm"
     inkscape:current-layer="layer1"
     showgrid="false"
     fit-margin-top="5"
     fit-margin-left="5"
     fit-margin-right="5"
     fit-margin-bottom="5"
     inkscape:window-width="1366"
     inkscape:window-height="704"
     inkscape:window-x="0"
     inkscape:window-y="27"
     inkscape:window-maximized="1" />
  <metadata
     id="metadata5">
    <rdf:RDF>
      <cc:Work
         rdf:about="">
        <dc:format>image/svg+xml</dc:format>
        <dc:type
           rdf:resource="http://purl.org/dc/dcmitype/StillImage" />
        <dc:title></dc:title>
      </cc:Work>
    </rdf:RDF>
  </metadata>
  <g
     inkscape:label="Layer 1"
     inkscape:groupmode="layer"
     id="layer1"
     transform="translate(94.837987,-115.46294)">
    <g
       aria-label="k-space.ee"
       style="font-style:normal;font-weight:normal;font-size:10.58333302px;line-height:1.25;font-family:sans-serif;letter-spacing:0px;word-spacing:0px;fill:#000000;fill-opacity:1;stroke:none;stroke-width:0.26458332"
       id="text12">
      <path
         d="m -82.210931,123.54622 -3.699934,4.04071 h -2.596444 v -7.12399 h -1.330678 v 12.49539 h 1.330678 v -4.04072 h 2.596444 l 3.699934,4.04072 h 1.736372 l -4.251678,-4.70606 4.267906,-4.70605 z"
         style="font-style:normal;font-variant:normal;font-weight:300;font-stretch:normal;font-size:16.22777748px;font-family:Orbitron;-inkscape-font-specification:'Orbitron Light';stroke-width:0.26458332"
         id="path45" />
      <path
         d="m -72.93701,127.48957 h -6.328833 v 1.33067 h 6.328833 z"
         style="font-style:normal;font-variant:normal;font-weight:300;font-stretch:normal;font-size:16.22777748px;font-family:Orbitron;-inkscape-font-specification:'Orbitron Light';stroke-width:0.26458332"
         id="path47" />
      <path
         d="m -61.454589,125.50978 c 0,-1.08726 -0.8763,-1.96356 -1.979789,-1.96356 h -5.647266 c -1.087261,0 -1.963561,0.8763 -1.963561,1.96356 v 1.44427 c 0,1.08726 0.8763,1.96356 1.963561,1.96356 h 5.647266 c 0.340784,0 0.632884,0.2921 0.632884,0.63288 v 1.44428 c 0,0.34078 -0.2921,0.63288 -0.632884,0.63288 h -5.647266 c -0.340784,0 -0.632884,-0.2921 -0.632884,-0.63288 v -0.12983 h -1.330677 v 0.12983 c 0,1.08726 0.8763,1.96356 1.963561,1.96356 h 5.647266 c 1.103489,0 1.979789,-0.8763 1.979789,-1.96356 v -1.44428 c 0,-1.08726 -0.8763,-1.96356 -1.979789,-1.96356 h -5.647266 c -0.340784,0 -0.632884,-0.2921 -0.632884,-0.63288 v -1.44427 c 0,-0.34078 0.2921,-0.63288 0.632884,-0.63288 h 5.647266 c 0.340784,0 0.632884,0.2921 0.632884,0.63288 v 0.12982 h 1.346905 z"
         style="font-style:normal;font-variant:normal;font-weight:300;font-stretch:normal;font-size:16.22777748px;font-family:Orbitron;-inkscape-font-specification:'Orbitron Light';stroke-width:0.26458332"
         id="path49" />
      <path
         d="m -52.195882,123.54622 h -7.627056 v 13.1445 h 1.330678 v -3.73239 h 6.296378 c 1.087261,0 1.963561,-0.8763 1.963561,-1.96356 v -5.48499 c 0,-1.08726 -0.8763,-1.96356 -1.963561,-1.96356 z m 0.632883,7.44855 c 0,0.34078 -0.2921,0.63288 -0.632883,0.63288 h -5.647267 c -0.357011,0 -0.649111,-0.2921 -0.649111,-0.63288 v -5.48499 c 0,-0.34078 0.2921,-0.63288 0.649111,-0.63288 h 5.647267 c 0.340783,0 0.632883,0.2921 0.632883,0.63288 z"
         style="font-style:normal;font-variant:normal;font-weight:300;font-stretch:normal;font-size:16.22777748px;font-family:Orbitron;-inkscape-font-specification:'Orbitron Light';stroke-width:0.26458332"
         id="path51" />
      <path
         d="m -41.468309,123.54622 h -7.610828 v 1.33068 h 7.610828 c 0.357011,0 0.632883,0.2921 0.632883,0.63288 v 2.07715 h -8.243711 v 3.40784 c 0,1.08726 0.8763,1.96356 1.963561,1.96356 h 7.627056 v -7.44855 c 0,-1.08726 -0.8763,-1.96356 -1.979789,-1.96356 z m 0.632883,8.08143 h -6.28015 c -0.340783,0 -0.632883,-0.2921 -0.632883,-0.63288 v -2.07716 h 6.913033 z"
         style="font-style:normal;font-variant:normal;font-weight:300;font-stretch:normal;font-size:16.22777748px;font-family:Orbitron;-inkscape-font-specification:'Orbitron Light';stroke-width:0.26458332"
         id="path53" />
      <path
         d="m -36.038595,131.62765 c -0.340784,0 -0.632884,-0.2921 -0.632884,-0.63288 v -5.48499 c 0,-0.34078 0.2921,-0.63288 0.632884,-0.63288 h 7.5946 v -1.33068 h -7.5946 c -1.087261,0 -1.963561,0.8763 -1.963561,1.96356 v 5.48499 c 0,1.08726 0.8763,1.96356 1.963561,1.96356 h 7.627055 v -1.33068 z"
         style="font-style:normal;font-variant:normal;font-weight:300;font-stretch:normal;font-size:16.22777748px;font-family:Orbitron;-inkscape-font-specification:'Orbitron Light';stroke-width:0.26458332"
         id="path55" />
      <path
         d="m -19.519983,123.54622 h -5.647267 c -1.087261,0 -1.963561,0.8763 -1.963561,1.96356 v 5.48499 c 0,1.08726 0.8763,1.96356 1.963561,1.96356 h 7.627056 v -1.33068 h -7.627056 c -0.340783,0 -0.632883,-0.2921 -0.632883,-0.63288 v -2.07716 h 8.259939 v -3.40783 c 0,-1.08726 -0.8763,-1.96356 -1.979789,-1.96356 z m -6.28015,4.04071 v -2.07715 c 0,-0.34078 0.2921,-0.63288 0.632883,-0.63288 h 5.647267 c 0.357011,0 0.632883,0.2921 0.632883,0.63288 v 2.07715 z"
         style="font-style:normal;font-variant:normal;font-weight:300;font-stretch:normal;font-size:16.22777748px;font-family:Orbitron;-inkscape-font-specification:'Orbitron Light';stroke-width:0.26458332"
         id="path57" />
      <path
         d="m -14.531464,131.62765 h -1.330677 v 1.33068 h 1.330677 z"
         style="font-style:normal;font-variant:normal;font-weight:300;font-stretch:normal;font-size:16.22777748px;font-family:Orbitron;-inkscape-font-specification:'Orbitron Light';stroke-width:0.26458332"
         id="path59" />
      <path
         d="m -4.8135622,123.54622 h -5.6472668 c -1.087261,0 -1.963561,0.8763 -1.963561,1.96356 v 5.48499 c 0,1.08726 0.8763,1.96356 1.963561,1.96356 h 7.6270556 v -1.33068 h -7.6270556 c -0.340783,0 -0.632883,-0.2921 -0.632883,-0.63288 v -2.07716 h 8.2599386 v -3.40783 c 0,-1.08726 -0.8763,-1.96356 -1.9797888,-1.96356 z m -6.2801498,4.04071 v -2.07715 c 0,-0.34078 0.2921,-0.63288 0.632883,-0.63288 h 5.6472668 c 0.3570111,0 0.6328833,0.2921 0.6328833,0.63288 v 2.07715 z"
         style="font-style:normal;font-variant:normal;font-weight:300;font-stretch:normal;font-size:16.22777748px;font-family:Orbitron;-inkscape-font-specification:'Orbitron Light';stroke-width:0.26458332"
         id="path61" />
      <path
         d="M 6.1528684,123.54622 H 0.50560186 c -1.08726109,0 -1.96356106,0.8763 -1.96356106,1.96356 v 5.48499 c 0,1.08726 0.87629997,1.96356 1.96356106,1.96356 H 8.1326573 v -1.33068 H 0.50560186 c -0.34078333,0 -0.63288332,-0.2921 -0.63288332,-0.63288 v -2.07716 H 8.1326573 v -3.40783 c 0,-1.08726 -0.8763,-1.96356 -1.9797889,-1.96356 z m -6.28014986,4.04071 v -2.07715 c 0,-0.34078 0.29209999,-0.63288 0.63288332,-0.63288 H 6.1528684 c 0.3570111,0 0.6328833,0.2921 0.6328833,0.63288 v 2.07715 z"
         style="font-style:normal;font-variant:normal;font-weight:300;font-stretch:normal;font-size:16.22777748px;font-family:Orbitron;-inkscape-font-specification:'Orbitron Light';stroke-width:0.26458332"
         id="path63" />
    </g>
  </g>
</svg>
