<svg width="571" height="239" viewBox="0 0 571 239" xmlns="http://www.w3.org/2000/svg" preserveAspectRatio="xMidYMid meet">
 <metadata>Created by potrace 1.14, written by Peter Selinger 2001-2017</metadata>

 <g>
  <title>background</title>
  <rect fill="none" id="canvas_background" height="402" width="582" y="-1" x="-1"/>
 </g>
 <g>
  <title>Layer 1</title>
  <g id="svg_1" fill="#000000" transform="translate(0,239) scale(0.10000000149011612,-0.10000000149011612) ">
   <path id="svg_2" d="m520,2360c-145,-20 -246,-62 -329,-136c-63,-57 -96,-111 -121,-201c-18,-62 -20,-101 -20,-475l0,-408l140,0l140,0l0,383c0,240 4,396 11,421c16,57 82,118 154,141c174,56 379,-13 414,-140c7,-26 11,-176 11,-422l0,-383l140,0l140,0l0,408c0,364 -2,414 -18,473c-35,127 -113,219 -235,279c-105,51 -293,78 -427,60z"/>
   <path id="svg_3" d="m1890,1735l0,-595l140,0l140,0l0,595l0,595l-140,0l-140,0l0,-595z"/>
   <path fill="#0093cf" stroke-width="0" id="svg_4" d="m2757,2318c4,-7 67,-89 140,-183c73,-93 169,-216 214,-273l80,-103l-27,-37c-16,-20 -101,-129 -189,-242c-88,-113 -182,-233 -208,-267l-48,-63l174,0l174,0l144,190c79,104 147,189 151,190c3,0 48,-54 100,-121c51,-67 117,-152 146,-190l53,-69l175,0l174,0l-158,203c-87,111 -193,246 -235,300c-42,54 -77,101 -77,105c0,4 97,131 215,282c118,151 215,278 215,283c0,4 -76,7 -169,7l-169,0l-131,-170c-73,-93 -135,-170 -139,-169c-4,0 -65,76 -137,170l-130,169l-173,0c-136,0 -172,-3 -165,-12z"/>
   <path id="svg_5" d="m4520,1917c0,-440 2,-463 52,-560c43,-86 141,-167 248,-205c87,-32 153,-42 270,-42c289,0 478,108 553,317c20,55 21,81 25,481l3,422l-140,0l-141,0l0,-378c0,-214 -4,-392 -10,-411c-24,-86 -96,-143 -209,-167c-143,-29 -296,23 -349,121c-15,26 -18,83 -22,430l-5,400l-137,3l-138,3l0,-414z"/>
   <path id="svg_6" d="m1040,530c0,-323 0,-330 20,-330c17,0 20,7 20,47l0,47l38,-36c139,-137 355,-56 379,142c17,145 -85,270 -222,270c-61,0 -122,-27 -157,-69c-15,-17 -29,-31 -32,-31c-3,0 -6,65 -6,145c0,138 -1,145 -20,145c-20,0 -20,-7 -20,-330zm328,67c97,-64 109,-247 22,-321c-89,-74 -218,-51 -281,51c-19,30 -24,52 -24,105c0,58 4,72 30,109c62,88 169,112 253,56z"/>
   <path id="svg_7" d="m4860,740l0,-70l-30,0c-27,0 -30,-3 -30,-30c0,-27 3,-30 30,-30l30,0l1,-152c0,-91 5,-167 12,-188c22,-64 108,-98 181,-70c20,7 26,17 26,39c0,29 -1,29 -34,20c-36,-10 -84,2 -98,24c-4,7 -8,83 -8,170l0,157l70,0l70,0l0,30l0,30l-70,0l-70,0l0,70l0,70l-40,0l-40,0l0,-70z"/>
   <path id="svg_8" d="m2493,671c-77,-19 -119,-75 -110,-145c7,-55 48,-87 142,-115c91,-27 125,-52 125,-91c0,-71 -103,-92 -203,-42l-57,29l-16,-24c-14,-23 -14,-26 3,-39c10,-7 42,-23 71,-34c143,-55 283,15 268,135c-7,54 -45,86 -143,119c-43,14 -89,33 -101,42c-28,19 -29,65 -1,90c28,25 111,24 165,-4l41,-21l16,29l17,28l-48,20c-57,24 -125,34 -169,23z"/>
   <path id="svg_9" d="m2925,664c-132,-48 -191,-226 -118,-356c42,-74 103,-111 193,-116c56,-3 74,0 116,21c27,14 57,34 67,44c16,19 16,21 -2,37c-18,17 -21,16 -61,-10c-60,-40 -142,-45 -190,-12c-42,29 -80,83 -80,114l0,24l185,0l185,0l0,28c0,52 -29,127 -65,169c-56,66 -145,88 -230,57zm154,-71c25,-19 52,-64 66,-110l6,-23l-150,0c-164,0 -162,-1 -140,57c34,90 145,129 218,76z"/>
   <path id="svg_10" d="m3453,666c-89,-29 -145,-94 -165,-190c-20,-102 42,-224 136,-267c84,-38 208,-17 265,45l25,26l-21,22l-21,21l-24,-23c-113,-107 -291,-26 -291,134c0,61 19,102 68,145c58,51 138,46 222,-15c20,-14 23,-14 42,7c20,22 20,23 3,42c-48,53 -161,79 -239,53z"/>
   <path id="svg_11" d="m4501,668c-48,-13 -79,-36 -107,-77l-24,-36l0,58l0,57l-35,0l-35,0l0,-235l0,-235l34,0l34,0l4,133c2,110 6,139 24,172c25,48 73,83 126,91c36,6 38,8 38,45c0,42 -3,43 -59,27z"/>
   <path id="svg_12" d="m200,654c-114,-49 -176,-189 -134,-304c47,-130 198,-197 319,-141c47,21 90,65 80,80c-9,16 -31,13 -46,-6c-8,-9 -32,-24 -54,-34c-187,-85 -351,159 -213,317c65,73 162,83 245,25c42,-30 47,-31 62,-16c15,15 14,18 -9,36c-71,57 -176,75 -250,43z"/>
   <path id="svg_13" d="m1714,664c-33,-8 -102,-72 -127,-118c-30,-58 -31,-174 0,-231c72,-136 232,-166 361,-68c30,22 32,27 19,40c-12,13 -20,11 -59,-17c-101,-71 -231,-41 -279,64c-36,79 -43,76 172,76l192,0l-6,61c-6,69 -35,121 -92,164c-28,22 -48,28 -97,30c-35,2 -73,1 -84,-1zm147,-57c36,-24 79,-96 79,-134l0,-23l-165,0c-159,0 -165,1 -165,20c0,45 52,119 105,148c35,20 109,14 146,-11z"/>
   <path id="svg_14" d="m2259,661c-42,-13 -80,-42 -110,-85l-29,-39l0,61c0,55 -2,62 -20,62c-19,0 -20,-7 -20,-230c0,-223 1,-230 20,-230c19,0 20,7 20,105c0,153 12,198 70,256c38,38 56,49 94,54c41,6 47,10 44,29c-3,23 -28,29 -69,17z"/>
   <path id="svg_15" d="m3800,495c0,-199 6,-226 65,-271c70,-53 175,-44 245,22l26,24l-4,-35c-4,-35 -4,-35 37,-35l41,0l-2,233l-3,232l-35,0l-35,0l-5,-165c-6,-187 -11,-202 -73,-231c-51,-23 -66,-23 -114,-4c-63,25 -67,40 -73,230l-5,170l-32,3l-33,3l0,-176z"/>
   <path id="svg_16" d="m4650,665c0,-3 -1,-107 -1,-232l0,-228l31,-3l30,-3l0,235l0,236l-30,0c-16,0 -30,-2 -30,-5z"/>
   <path id="svg_17" d="m5140,661c0,-6 45,-109 100,-229c55,-120 100,-226 100,-235c0,-9 -13,-31 -28,-48c-29,-33 -62,-40 -112,-27c-22,6 -27,3 -37,-22c-11,-29 -10,-30 25,-40c82,-22 144,-3 185,59c21,32 210,480 224,534c4,14 -1,17 -30,17l-35,0l-50,-127c-27,-71 -60,-156 -73,-190c-13,-35 -26,-63 -30,-63c-3,0 -42,84 -87,188l-81,187l-35,3c-20,2 -36,-1 -36,-7z"/>
   <path id="svg_18" d="m520,651c0,-4 48,-107 106,-227c68,-142 103,-225 100,-238c-3,-12 -18,-37 -35,-56c-26,-31 -34,-35 -77,-34c-27,0 -56,2 -64,5c-10,2 -15,-3 -15,-16c0,-15 10,-22 43,-29c60,-13 115,6 148,49c22,29 146,310 225,508l19,48l-25,-3c-24,-3 -33,-21 -102,-193c-41,-104 -79,-194 -83,-198c-8,-9 -54,83 -147,291c-40,87 -50,102 -70,102c-12,0 -23,-4 -23,-9z"/>
  </g>
  <line stroke-linecap="null" stroke-linejoin="null" id="svg_19" y2="226.5" x2="577" y1="212.5" x1="561" stroke-opacity="null" stroke="null" fill="none"/>
  <rect stroke="null" id="svg_20" height="10" width="9" y="213.5" x="555" stroke-opacity="null" fill="#000000"/>
 </g>
</svg>