<?xml version="1.0" encoding="utf-8"?>
<!-- Generator: Adobe Illustrator 16.0.4, SVG Export Plug-In . SVG Version: 6.00 Build 0)  -->
<!DOCTYPE svg PUBLIC "-//W3C//DTD SVG 1.1//EN" "http://www.w3.org/Graphics/SVG/1.1/DTD/svg11.dtd">
<svg version="1.1" id="Layer_1" xmlns="http://www.w3.org/2000/svg" xmlns:xlink="http://www.w3.org/1999/xlink" x="0px" y="0px"
	 width="694.467px" height="189.058px" viewBox="0 0 694.467 189.058" enable-background="new 0 0 694.467 189.058"
	 xml:space="preserve">
<g>
	<path fill="#EC0009" d="M83.524,156.355L43.586,81.24l18.899-10.049l39.939,75.113L83.524,156.355z M48.703,102.32L0,111.789
		l4.085,21.014l48.702-9.469L48.703,102.32z M120.149,55.082L15.088,34.662l-4.085,21.012l105.062,20.422L120.149,55.082z
		 M91.198,18.463C91.198,8.266,82.932,0,72.734,0c-10.195,0-18.46,8.266-18.46,18.463c0,10.195,8.265,18.463,18.46,18.463
		C82.932,36.926,91.198,28.658,91.198,18.463"/>
	<path fill="#EC0009" d="M284.902,93.652l-91.53,32.346H299.92v21.742h-97.789c-12.781,0-23.061-10.418-23.061-23.375
		c0-11.051,7.776-19.93,17.876-22.559l91.622-32.344H184.433V47.721h95.284c12.783,0,23.063,10.42,23.063,23.375
		C302.779,82.146,295.001,91.027,284.902,93.652 M415.77,126.043h-76.271V69.475h76.271V126.043z M437.525,77.092
		c0-16.229-13.145-29.371-29.371-29.371h-61.037c-16.23,0-29.373,13.143-29.373,29.371v41.336c0,16.227,13.143,29.371,29.373,29.371
		h61.037c16.227,0,29.371-13.145,29.371-29.371V77.092z M569.135,77.092c0-16.225-13.145-29.371-29.371-29.371h-85.211v100.078
		h21.756v-78.32h71.068v78.32h21.758V77.092z M694.467,126.041H606.84v-17.402h87.627V86.881H606.84V69.479h87.627V47.721h-80.014
		c-16.223,0-29.367,13.146-29.367,29.371v41.336c0,16.225,13.145,29.371,29.367,29.371h80.014V126.041z"/>
</g>
</svg>
