<svg xmlns="http://www.w3.org/2000/svg" width="1214.66" height="283.46"><g data-name="Layer 2"><g data-name="Layer 1" fill="#282828"><path d="M0 140.34h70.17v140.34H0zM161.39 0h70.17v140.34h-70.17zM80.7 0h70.17v280.69H80.7zM469 196c0-48.29 38.49-87.48 87-87.48A87.16 87.16 0 0 1 643.27 196c0 48.53-38.26 87.48-87.25 87.48C507.5 283.46 469 244.51 469 196zm133.44 0c0-26.12-20.06-47.59-46.43-47.59s-45.94 21.45-45.94 47.59c0 25.9 19.36 47.36 45.95 47.36 26.83-.02 46.43-21.48 46.43-47.36zM678.36 110.84h40.83v131.33h74.18v39h-115zM834.2 110.84H875v170.29h-40.8zM961.63 149.79H913.3v-38.95h137.47v38.95h-48.32v131.34h-40.82zM1112.48 110.84h39.2l63 170.29h-41.29l-8.87-25.43h-65.08l-8.87 25.43h-41zm-.46 109.4h40.12l-20.06-57.15zM301.74 249.41l26.85-26.8c13.61 16.51 27.82 22.83 50.6 22.83 13.76 0 21.23-6.53 21.23-15.86 0-11.43-11.2-13.77-35.23-19.6-24.73-5.6-53.65-14.7-53.65-49.69 0-29.63 25.89-52.25 62.28-52.25 31.26 0 49.59 10.61 67.78 30.21l-24.81 24.8c-12.24-13.94-23.86-19.32-43.9-19.32-13.77 0-20.3 7.46-20.3 15.16 0 10.5 14 12.6 34.53 17.5 25.43 5.83 55.52 14.69 55.52 51.32 0 32.19-27.29 55.75-64.85 55.75-37.79 0-59.96-14.69-76.05-34.05z"/></g></g></svg>